name C:\Users\u0101727\Documents\MyRepositories\upper-imu-dc\Results\main_mocap_tracking\Case_12\kinematics.mot
datacolumns 10
datarows 33
range 1.50000000 1.82000000
endheader 
time	clav_prot	clav_elev	scapula_abduction	scapula_elevation	scapula_upward_rot	scapula_winging	plane_elv	shoulder_elv	axial_rot	
          1.50000000	        -27.47651728	         -5.88485374	         -9.46420579	         -9.29451469	         29.92729608	          2.10430079	         76.28778123	         58.16788804	        -16.66907931	
          1.51000000	        -26.90535774	         -5.64969987	         -8.23510409	         -9.15118023	         30.36156821	          1.95086921	         76.13741473	         58.47565835	        -16.05099364	
          1.52000000	        -26.32165775	         -5.36761947	         -6.98770874	         -8.98191047	         30.80077399	          1.76726113	         76.00075002	         58.78610339	        -15.48358337	
          1.53000000	        -25.78700898	         -5.09218055	         -5.83163003	         -8.81743264	         31.22164028	          1.58144216	         75.87342883	         59.10814654	        -15.00237157	
          1.54000000	        -25.29855775	         -4.83643657	         -4.75766465	         -8.66771914	         31.62738147	          1.40100133	         75.75026410	         59.43901246	        -14.60076024	
          1.55000000	        -24.85602526	         -4.59891941	         -3.76625677	         -8.53163287	         32.01820479	          1.22661202	         75.63054705	         59.78020390	        -14.28598495	
          1.56000000	        -24.45888021	         -4.38304236	         -2.85576463	         -8.41172991	         32.39497160	          1.06094946	         75.51101873	         60.13104016	        -14.05336178	
          1.57000000	        -24.10867488	         -4.19102847	         -2.02857108	         -8.30975050	         32.75820190	          0.90599030	         75.38860754	         60.49072081	        -13.89529213	
          1.58000000	        -23.81100828	         -4.02268520	         -1.29343881	         -8.22614296	         33.10991048	          0.76229586	         75.26106839	         60.85705570	        -13.79855423	
          1.59000000	        -23.58076914	         -3.87378020	         -0.67512129	         -8.15914049	         33.45339403	          0.62861909	         75.12783407	         61.22715703	        -13.74821150	
          1.60000000	        -23.44294012	         -3.73598054	         -0.21576500	         -8.10476758	         33.79327928	          0.50206409	         74.99001924	         61.59761296	        -13.72837447	
          1.61000000	        -23.40557285	         -3.60032126	          0.07211830	         -8.05767778	         34.13473692	          0.37886483	         74.84982978	         61.96503447	        -13.72383734	
          1.62000000	        -23.43477496	         -3.46146625	          0.24929879	         -8.01266361	         34.48244763	          0.25534023	         74.70970630	         62.32648058	        -13.72219724	
          1.63000000	        -23.49425795	         -3.31675653	          0.38010186	         -7.96605518	         34.83923683	          0.12894240	         74.57156095	         62.68023542	        -13.71667120	
          1.64000000	        -23.56676117	         -3.16555551	          0.49427671	         -7.91632973	         35.20506696	         -0.00099332	         74.43638368	         63.02664172	        -13.70837515	
          1.65000000	        -23.64541359	         -3.00964097	          0.60221142	         -7.86394893	         35.57734625	         -0.13334608	         74.30441717	         63.36800389	        -13.70573796	
          1.66000000	        -23.72744267	         -2.85206608	          0.70667979	         -7.81040013	         35.95243429	         -0.26618230	         74.17597430	         63.70757050	        -13.72064528	
          1.67000000	        -23.81225091	         -2.69492797	          0.80725342	         -7.75677867	         36.32775645	         -0.39816188	         74.05254732	         64.04800960	        -13.76251045	
          1.68000000	        -23.90091718	         -2.53754453	          0.90202420	         -7.70267266	         36.70348173	         -0.52960997	         73.93754211	         64.39012340	        -13.83292560	
          1.69000000	        -23.99577217	         -2.37626351	          0.98850003	         -7.64601987	         37.08277153	         -0.66261133	         73.83609793	         64.73256353	        -13.92400006	
          1.70000000	        -24.09966210	         -2.20609807	          1.06422121	         -7.58403634	         37.47039584	         -0.80005539	         73.75395295	         65.07275042	        -14.02163832	
          1.71000000	        -24.21509337	         -2.02309124	          1.12717475	         -7.51456970	         37.87060412	         -0.94427597	         73.69592898	         65.40837827	        -14.11166112	
          1.72000000	        -24.34369398	         -1.82574823	          1.17593866	         -7.43690176	         38.28565978	         -1.09622614	         73.66487935	         65.73847119	        -14.18452218	
          1.73000000	        -24.48622601	         -1.61460909	          1.20958647	         -7.35145561	         38.71588417	         -1.25569569	         73.66161934	         66.06335817	        -14.23577834	
          1.74000000	        -24.64300500	         -1.39038296	          1.22752966	         -7.25866124	         39.16097840	         -1.42231801	         73.68570732	         66.38371981	        -14.26272933	
          1.75000000	        -24.81437094	         -1.15197410	          1.22946285	         -7.15777616	         39.62162521	         -1.59662331	         73.73644300	         66.69941562	        -14.25998511	
          1.76000000	        -25.00088733	         -0.89576435	          1.21542020	         -7.04647348	         40.10023533	         -1.78039776	         73.81335814	         67.00892256	        -14.21732752	
          1.77000000	        -25.20315357	         -0.61672193	          1.18583001	         -6.92153215	         40.60026134	         -1.97606294	         73.91583361	         67.30982390	        -14.12179562	
          1.78000000	        -25.42137679	         -0.31073572	          1.14148359	         -6.78026842	         41.12448409	         -2.18543599	         74.04208599	         67.60005179	        -13.96291279	
          1.79000000	        -25.65498225	          0.02313670	          1.08343948	         -6.62192197	         41.67332370	         -2.40860212	         74.18819452	         67.87909949	        -13.73783155	
          1.80000000	        -25.90247579	          0.38160151	          1.01292809	         -6.44833295	         42.24406699	         -2.64347763	         74.34778432	         68.14855531	        -13.45364929	
          1.81000000	        -26.16160769	          0.75755776	          0.93129127	         -6.26370955	         42.83126339	         -2.88618436	         74.51256838	         68.41179428	        -13.12613094	
          1.82000000	        -26.42973482	          1.14158364	          0.83994781	         -6.07374141	         43.42792119	         -3.13193772	         74.67348753	         68.67311231	        -12.77597380	
